<?xml version="1.0" encoding="UTF-8" standalone="no"?>
<svg width="54px" height="55px" viewBox="0 0 54 55" version="1.1" xmlns="http://www.w3.org/2000/svg" xmlns:xlink="http://www.w3.org/1999/xlink">
    <!-- Generator: Sketch 50.2 (55047) - http://www.bohemiancoding.com/sketch -->
    <title>Group 18</title>
    <desc>Created with Sketch.</desc>
    <defs>
        <rect id="path-1" x="0" y="0" width="55" height="55"></rect>
    </defs>
    <g id="Page-1" stroke="none" stroke-width="1" fill="none" fill-rule="evenodd">
        <g id="Newsroom" transform="translate(-845.000000, -2119.000000)">
            <g id="Media-kit" transform="translate(0.000000, 2072.000000)">
                <g id="Group-18" transform="translate(844.000000, 47.000000)">
                    <mask id="mask-2" fill="white">
                        <use xlink:href="#path-1"></use>
                    </mask>
                    <g id="Mask"></g>
                    <g mask="url(#mask-2)" stroke="#FFFFFF">
                        <g transform="translate(-9.041096, -9.041096)">
                            <path d="M40.3507437,43.6826966 C40.3507437,43.6826966 43.0200251,42.1545676 43.7188243,41.7873684 C44.4156459,41.4188506 45.1375187,41.3258971 45.5759163,41.5935505 C46.2397756,41.9996451 51.8143479,45.7078959 52.2837301,46.0361998 C52.7531122,46.3651628 52.9792331,47.3045864 52.3338326,48.2248918 C51.6910692,49.1451973 48.725787,52.7842274 47.4692668,52.745332 C46.2107689,52.7044588 40.9783446,52.5897502 31.1114307,42.7201995 C21.2464947,32.8539449 21.1298084,27.6202021 21.0895945,26.3617042 C21.0493805,25.1038655 24.6884107,22.1379241 25.6087161,21.4945013 C26.5303401,20.8517379 27.4710821,21.0936806 27.7980674,21.5459224 C28.1698814,22.0607924 31.8352813,27.6175651 32.238739,28.2543954 C32.5149625,28.6894968 32.4134388,29.4153251 32.0449211,30.1128059 C31.6783811,30.8116051 30.1502521,33.4808865 30.1502521,33.4808865 C30.1502521,33.4808865 31.2274578,35.3182012 34.8704434,38.9605276 C38.5140883,42.6035132 40.3507437,43.6826966 40.3507437,43.6826966 Z" id="Shape" transform="translate(36.911182, 36.924025) rotate(1.000000) translate(-36.911182, -36.924025) "></path>
                            <path d="M10.6054324,36.4863799 C10.369901,39.4480438 11.0213783,45.8724845 14.1094705,50.8144651 C17.8746476,56.8400081 24.4360385,61.6439972 32.4468709,62.5141889 C48.1990879,64.2253031 61.5173344,52.3712268 61.8772733,37.2397962 C62.2372122,22.1083657 49.1914585,10.0664087 35.278053,10.0664087 C28.4927815,10.265774 22.5604955,12.9415381 17.4811948,18.0937009" id="Path-24" transform="translate(36.223095, 36.372578) rotate(-144.000000) translate(-36.223095, -36.372578) "></path>
                            <path d="M40.6635262,62.2630791 C47.9257036,60.4977304 51.0619396,56.6486622 50.0722342,50.7158744" id="Path-8" transform="translate(45.456907, 56.489477) rotate(1.000000) translate(-45.456907, -56.489477) "></path>
                        </g>
                    </g>
                </g>
            </g>
        </g>
    </g>
</svg>