<?xml version="1.0" encoding="UTF-8" standalone="no"?>
<svg width="62px" height="51px" viewBox="0 0 62 51" version="1.1" xmlns="http://www.w3.org/2000/svg" xmlns:xlink="http://www.w3.org/1999/xlink">
    <!-- Generator: Sketch 50.2 (55047) - http://www.bohemiancoding.com/sketch -->
    <title>Media kit</title>
    <desc>Created with Sketch.</desc>
    <defs></defs>
    <g id="Page-1" stroke="none" stroke-width="1" fill="none" fill-rule="evenodd">
        <g id="Newsroom" transform="translate(-539.000000, -2121.000000)" stroke="#FFFFFF">
            <g id="Media-kit" transform="translate(0.000000, 2072.000000)">
                <g transform="translate(540.000000, 50.000000)" id="Shape">
                    <path d="M60,42.4044308 C60,45.9717119 56.6231638,48.8135593 53.0225989,48.8135593 L6.57062147,48.8135593 C2.96949153,48.8135593 0,45.9722769 0,42.4044308 L0,14.1385015 C0,10.5706553 2.96949153,8.13559322 6.57062147,8.13559322 L53.0225989,8.13559322 C56.6231638,8.13559322 60,10.5706553 60,14.1385015 L60,42.4044308 Z"></path>
                    <path d="M0,42.7118644 L60,42.7118644"></path>
                    <path d="M41.6332725,8.13559322 C41.6682589,8.13559322 41.6949153,7.58244746 41.6949153,7.27112641 C41.6949153,3.22677775 38.4722744,0 34.4971472,0 L25.5017421,0 C21.5271702,0 18.3050847,3.22677775 18.3050847,7.27112641 C18.3050847,7.58301247 18.3300751,8.13559322 18.3678382,8.13559322 L41.6332725,8.13559322 Z"></path>
                    <path d="M51.3056497,8.13559322 L8.28813559,8.13559322 C4.2440678,8.13559322 0,10.0412959 0,14.084911 L0,20.4918687 C0,24.5360488 3.22768362,28.4745763 7.27118644,28.4745763 L21.1248588,28.4745763 C21.1124294,27.4581639 21.1016949,27.8677798 21.1016949,27.7118432 C21.1016949,24.930975 23.3559322,22.3727119 26.1355932,22.3727119 L32.5423729,22.3727119 C35.320904,22.3727119 37.5762712,24.930975 37.5762712,27.7118432 C37.5762712,27.8672148 37.5649718,27.4581639 37.5542373,28.4745763 L52.3220339,28.4745763 C56.3649718,28.4745763 60,24.5360488 60,20.4918687 L60,14.084911 C60,10.0412959 55.3485876,8.13559322 51.3056497,8.13559322 Z"></path>
                    <path d="M37.6271186,27.4576271 C37.6271186,30.2361582 35.6043803,32.5423729 33.1073446,32.5423729 L25.8757062,32.5423729 C23.3797866,32.5423729 21.3559322,30.2361582 21.3559322,27.4576271 C21.3559322,24.679096 23.3797866,22.3728814 25.8757062,22.3728814 L33.1073446,22.3728814 C35.6043803,22.3728814 37.6271186,24.679096 37.6271186,27.4576271 Z"></path>
                </g>
            </g>
        </g>
    </g>
</svg>